<svg width="174" height="43" viewBox="0 0 174 43" fill="none" xmlns="http://www.w3.org/2000/svg">
<path opacity="0.6" d="M126.547 41.5092H94.5166V37.556C94.5166 34.9348 95.5712 32.421 97.4483 30.5675C99.3255 28.7141 101.871 27.6728 104.526 27.6728H116.538C119.192 27.6728 121.738 28.7141 123.616 30.5675C125.493 32.421 126.547 34.9348 126.547 37.556V41.5092ZM110.532 23.7196C108.955 23.7196 107.393 23.4128 105.935 22.8168C104.478 22.2208 103.154 21.3472 102.039 20.2459C100.923 19.1446 100.038 17.8372 99.4348 16.3983C98.8311 14.9594 98.5204 13.4172 98.5204 11.8598C98.5204 10.3023 98.8311 8.76013 99.4348 7.32124C100.038 5.88234 100.923 4.57493 102.039 3.47365C103.154 2.37237 104.478 1.49878 105.935 0.902772C107.393 0.306762 108.955 -2.32078e-08 110.532 0C113.718 4.68702e-08 116.773 1.24951 119.025 3.47365C121.278 5.69779 122.543 8.71437 122.543 11.8598C122.543 15.0052 121.278 18.0218 119.025 20.2459C116.773 22.47 113.718 23.7196 110.532 23.7196Z" fill="#A0AEC0"/>
<path opacity="0.6" d="M173.806 42.56H141.25V38.6067C141.25 35.9856 142.322 33.4718 144.23 31.6183C146.137 29.7649 148.725 28.7236 151.423 28.7236H163.632C166.33 28.7236 168.918 29.7649 170.826 31.6183C172.734 33.4718 173.806 35.9856 173.806 38.6067V42.56ZM157.528 24.7703C155.924 24.7703 154.337 24.4636 152.856 23.8676C151.374 23.2716 150.029 22.398 148.895 21.2967C147.761 20.1954 146.862 18.888 146.249 17.4491C145.635 16.0102 145.319 14.468 145.319 12.9106C145.319 11.3531 145.635 9.81091 146.249 8.37202C146.862 6.93312 147.761 5.62571 148.895 4.52443C150.029 3.42315 151.374 2.54956 152.856 1.95355C154.337 1.35754 155.924 1.05078 157.528 1.05078C160.766 1.05078 163.871 2.30029 166.16 4.52443C168.45 6.74857 169.736 9.76515 169.736 12.9106C169.736 16.056 168.45 19.0725 166.16 21.2967C163.871 23.5208 160.766 24.7703 157.528 24.7703Z" fill="#A0AEC0"/>
<path opacity="0.6" d="M79.8138 41.5092H47.2581V37.556C47.2581 34.9348 48.3299 32.421 50.2379 30.5675C52.1458 28.7141 54.7335 27.6728 57.4317 27.6728H69.6401C72.3384 27.6728 74.9261 28.7141 76.834 30.5675C78.7419 32.421 79.8138 34.9348 79.8138 37.556V41.5092ZM63.5359 23.7196C61.9327 23.7196 60.3452 23.4128 58.864 22.8168C57.3828 22.2208 56.0369 21.3472 54.9033 20.2459C53.7696 19.1446 52.8704 17.8372 52.2568 16.3983C51.6433 14.9594 51.3275 13.4172 51.3275 11.8598C51.3275 10.3023 51.6433 8.76013 52.2568 7.32124C52.8704 5.88234 53.7696 4.57493 54.9033 3.47365C56.0369 2.37237 57.3828 1.49878 58.864 0.902772C60.3452 0.306762 61.9327 -2.32078e-08 63.5359 0C66.7738 4.68702e-08 69.8791 1.24951 72.1686 3.47365C74.4581 5.69779 75.7443 8.71437 75.7443 11.8598C75.7443 15.0052 74.4581 18.0218 72.1686 20.2459C69.8791 22.47 66.7738 23.7196 63.5359 23.7196Z" fill="#D53F8C"/>
<path opacity="0.7" d="M32.5558 40.9838H0V37.0806C0 34.4926 1.07187 32.0106 2.9798 30.1806C4.88773 28.3506 7.47545 27.3225 10.1737 27.3225H22.3821C25.0803 27.3225 27.668 28.3506 29.576 30.1806C31.4839 32.0106 32.5558 34.4926 32.5558 37.0806V40.9838ZM16.2779 23.4193C14.6746 23.4193 13.0871 23.1164 11.6059 22.528C10.1247 21.9395 8.77889 21.077 7.64523 19.9896C6.51157 18.9023 5.61231 17.6114 4.99878 16.1907C4.38525 14.7701 4.06947 13.2474 4.06947 11.7097C4.06947 10.1719 4.38525 8.64924 4.99878 7.22856C5.61231 5.80788 6.51157 4.51702 7.64523 3.42968C8.77889 2.34234 10.1247 1.47981 11.6059 0.891344C13.0871 0.302879 14.6746 -2.2914e-08 16.2779 0C19.5158 4.62769e-08 22.621 1.23369 24.9105 3.42968C27.2001 5.62566 28.4863 8.60406 28.4863 11.7097C28.4863 14.8152 27.2001 17.7936 24.9105 19.9896C22.621 22.1856 19.5158 23.4193 16.2779 23.4193Z" fill="#D53F8C"/>
</svg>
