<svg width="55" height="56" viewBox="0 0 55 56" fill="none" xmlns="http://www.w3.org/2000/svg">
<circle cx="27.5" cy="28" r="27.5" fill="white"/>
<path d="M38.9419 16.2144C38.1466 15.4358 36.8687 15.4561 36.0986 16.2596L34.6451 17.7764L24.541 27.8804C23.7704 28.6511 22.5246 28.6628 21.7395 27.9068L19.8049 26.0439L18.2428 24.4818C17.4618 23.7007 16.1954 23.7007 15.4144 24.4818L12.4142 27.482C11.6332 28.263 11.6332 29.5293 12.4142 30.3104L13.9763 31.8725L20.1769 38.0731L21.6157 39.5744C22.3914 40.3839 23.681 40.3976 24.4739 39.6048L26.0055 38.0731L40.4737 23.605L42.0208 22.0578C42.8077 21.271 42.801 19.9931 42.0059 19.2146L38.9419 16.2144Z" fill="#68D391"/>
</svg>
