<svg width="36" height="36" viewBox="0 0 36 36" fill="none" xmlns="http://www.w3.org/2000/svg">
<mask id="mask0_108_912" style="mask-type:alpha" maskUnits="userSpaceOnUse" x="0" y="0" width="36" height="36">
<rect x="0.578033" width="35.4217" height="35.4217" fill="#D9D9D9"/>
</mask>
<g mask="url(#mask0_108_912)">
<path d="M10.9094 25.0904H25.6684C25.9636 25.0904 26.185 24.9551 26.3325 24.6845C26.4801 24.4139 26.4555 24.1556 26.2587 23.9097L22.2 18.4857C22.0524 18.2889 21.8556 18.1905 21.6097 18.1905C21.3637 18.1905 21.1669 18.2889 21.0193 18.4857L17.1819 23.6145L14.4515 19.9616C14.3039 19.7648 14.1071 19.6664 13.8612 19.6664C13.6152 19.6664 13.4184 19.7648 13.2708 19.9616L10.319 23.9097C10.1222 24.1556 10.0976 24.4139 10.2452 24.6845C10.3928 24.9551 10.6142 25.0904 10.9094 25.0904Z" fill="white"/>
<path d="M7.95754 30.994C7.1458 30.994 6.45065 30.7052 5.87209 30.1276C5.29452 29.5491 5.00574 28.8539 5.00574 28.0422V7.37954C5.00574 6.56779 5.29452 5.87264 5.87209 5.29409C6.45065 4.71652 7.1458 4.42773 7.95754 4.42773H21.2407L18.2889 7.37954H7.95754V28.0422H28.6202V14.7591L31.572 11.8073V28.0422C31.572 28.8539 31.2832 29.5491 30.7056 30.1276C30.1271 30.7052 29.4319 30.994 28.6202 30.994H7.95754Z" fill="white"/>
<mask id="mask1_108_912" style="mask-type:alpha" maskUnits="userSpaceOnUse" x="16" y="-3" width="22" height="22">
<rect x="17.9084" y="-1.00922" width="17.759" height="17.759" fill="#D9D9D9" stroke="white" stroke-width="3"/>
</mask>
<g mask="url(#mask1_108_912)">
<path d="M31.2771 5.97932L28.6636 3.39649L29.5245 2.53555C29.7602 2.29981 30.0499 2.18195 30.3934 2.18195C30.7366 2.18195 31.026 2.29981 31.2618 2.53555L32.1227 3.39649C32.3584 3.63223 32.4814 3.91675 32.4917 4.25006C32.5019 4.58295 32.3892 4.86727 32.1535 5.10301L31.2771 5.97932ZM21.8683 13.405C21.694 13.405 21.5481 13.3459 21.4304 13.2279C21.3123 13.1102 21.2533 12.9642 21.2533 12.79V11.0527C21.2533 10.9707 21.2687 10.8914 21.2994 10.8148C21.3302 10.7377 21.3763 10.6684 21.4378 10.6069L27.7719 4.27281L30.3854 6.88639L24.0514 13.2205C23.9899 13.282 23.9208 13.3281 23.8441 13.3588C23.767 13.3896 23.6875 13.405 23.6055 13.405H21.8683Z" fill="white"/>
</g>
</g>
</svg>
