<svg width="174" height="42" viewBox="0 0 174 42" fill="none" xmlns="http://www.w3.org/2000/svg">
<path opacity="0.6" d="M126.547 41.5092H94.5166V37.556C94.5166 34.9348 95.5712 32.421 97.4483 30.5675C99.3255 28.7141 101.871 27.6728 104.526 27.6728H116.538C119.192 27.6728 121.738 28.7141 123.616 30.5675C125.493 32.421 126.547 34.9348 126.547 37.556V41.5092ZM110.532 23.7196C108.955 23.7196 107.393 23.4128 105.935 22.8168C104.478 22.2208 103.154 21.3472 102.039 20.2459C100.923 19.1446 100.038 17.8372 99.4348 16.3983C98.8311 14.9594 98.5204 13.4172 98.5204 11.8598C98.5204 10.3023 98.8311 8.76013 99.4348 7.32124C100.038 5.88234 100.923 4.57493 102.039 3.47365C103.154 2.37237 104.478 1.49878 105.935 0.902772C107.393 0.306762 108.955 -2.32078e-08 110.532 0C113.718 4.68702e-08 116.773 1.24951 119.025 3.47365C121.278 5.69779 122.543 8.71437 122.543 11.8598C122.543 15.0052 121.278 18.0218 119.025 20.2459C116.773 22.47 113.718 23.7196 110.532 23.7196Z" fill="#A0AEC0"/>
<path opacity="0.6" d="M173.556 41.5092H141V37.556C141 34.9348 142.072 32.421 143.98 30.5675C145.888 28.7141 148.475 27.6728 151.174 27.6728H163.382C166.08 27.6728 168.668 28.7141 170.576 30.5675C172.484 32.421 173.556 34.9348 173.556 37.556V41.5092ZM157.278 23.7196C155.675 23.7196 154.087 23.4128 152.606 22.8168C151.125 22.2208 149.779 21.3472 148.645 20.2459C147.512 19.1446 146.612 17.8372 145.999 16.3983C145.385 14.9594 145.069 13.4172 145.069 11.8598C145.069 10.3023 145.385 8.76013 145.999 7.32124C146.612 5.88234 147.512 4.57493 148.645 3.47365C149.779 2.37237 151.125 1.49878 152.606 0.902772C154.087 0.306762 155.675 -2.32078e-08 157.278 0C160.516 4.68702e-08 163.621 1.24951 165.911 3.47365C168.2 5.69779 169.486 8.71437 169.486 11.8598C169.486 15.0052 168.2 18.0218 165.911 20.2459C163.621 22.47 160.516 23.7196 157.278 23.7196Z" fill="#A0AEC0"/>
<path opacity="0.6" d="M79.8138 41.5092H47.2581V37.556C47.2581 34.9348 48.3299 32.421 50.2379 30.5675C52.1458 28.7141 54.7335 27.6728 57.4317 27.6728H69.6401C72.3384 27.6728 74.9261 28.7141 76.834 30.5675C78.7419 32.421 79.8138 34.9348 79.8138 37.556V41.5092ZM63.5359 23.7196C61.9327 23.7196 60.3452 23.4128 58.864 22.8168C57.3828 22.2208 56.0369 21.3472 54.9033 20.2459C53.7696 19.1446 52.8704 17.8372 52.2568 16.3983C51.6433 14.9594 51.3275 13.4172 51.3275 11.8598C51.3275 10.3023 51.6433 8.76013 52.2568 7.32124C52.8704 5.88234 53.7696 4.57493 54.9033 3.47365C56.0369 2.37237 57.3828 1.49878 58.864 0.902772C60.3452 0.306762 61.9327 -2.32078e-08 63.5359 0C66.7738 4.68702e-08 69.8791 1.24951 72.1686 3.47365C74.4581 5.69779 75.7443 8.71437 75.7443 11.8598C75.7443 15.0052 74.4581 18.0218 72.1686 20.2459C69.8791 22.47 66.7738 23.7196 63.5359 23.7196Z" fill="#A0AEC0"/>
<path opacity="0.6" d="M32.5558 41.5092H0V37.556C0 34.9348 1.07187 32.421 2.9798 30.5675C4.88773 28.7141 7.47545 27.6728 10.1737 27.6728H22.3821C25.0803 27.6728 27.668 28.7141 29.576 30.5675C31.4839 32.421 32.5558 34.9348 32.5558 37.556V41.5092ZM16.2779 23.7196C14.6746 23.7196 13.0871 23.4128 11.6059 22.8168C10.1247 22.2208 8.77889 21.3472 7.64523 20.2459C6.51157 19.1446 5.61231 17.8372 4.99878 16.3983C4.38525 14.9594 4.06947 13.4172 4.06947 11.8598C4.06947 10.3023 4.38525 8.76013 4.99878 7.32124C5.61231 5.88234 6.51157 4.57493 7.64523 3.47365C8.77889 2.37237 10.1247 1.49878 11.6059 0.902772C13.0871 0.306762 14.6746 -2.32078e-08 16.2779 0C19.5158 4.68702e-08 22.621 1.24951 24.9105 3.47365C27.2001 5.69779 28.4863 8.71437 28.4863 11.8598C28.4863 15.0052 27.2001 18.0218 24.9105 20.2459C22.621 22.47 19.5158 23.7196 16.2779 23.7196Z" fill="#A0AEC0"/>
</svg>
