<svg width="268" height="58" viewBox="0 0 268 58" fill="none" xmlns="http://www.w3.org/2000/svg">
<path d="M196.455 43.3436C194.304 43.3436 192.179 43.3436 190.028 43.3436C185.852 37.8259 181.651 32.3081 177.275 26.5407C177.275 32.3081 177.275 37.8009 177.275 43.3436C174.899 43.3436 172.648 43.3436 170.348 43.3436C170.348 34.0059 170.348 24.6682 170.348 15.2306C172.448 15.2306 174.599 15.2306 176.874 15.2306C181.001 20.6984 185.202 26.2661 189.603 32.0584C189.603 26.291 189.603 20.7983 189.603 15.2306C191.954 15.2306 194.179 15.2306 196.455 15.2306C196.455 24.5433 196.455 33.931 196.455 43.3436Z" fill="white"/>
<path d="M142.84 15.1807C145.341 15.1807 147.741 15.1807 150.242 15.1807C150.242 15.7549 150.242 16.3042 150.242 16.8285C150.242 21.772 150.242 26.7155 150.242 31.659C150.242 35.8784 153.843 38.3002 157.894 37.1268C160.12 36.4776 161.47 34.5302 161.495 32.0085C161.545 27.065 161.52 22.1215 161.52 17.1531C161.52 16.5289 161.52 15.9047 161.52 15.2056C163.996 15.2056 166.422 15.2056 168.847 15.2056C169.047 15.5552 168.972 15.8797 168.972 16.2043C168.972 21.2227 168.972 26.2661 168.972 31.2845C168.972 32.7326 168.822 34.1807 168.372 35.5788C166.972 40.0979 163.146 43.1189 158.244 43.5683C156.069 43.768 153.918 43.7681 151.792 43.2188C146.391 41.8705 143.09 38.0506 142.865 32.3331C142.665 26.6905 142.84 20.998 142.84 15.1807Z" fill="white"/>
<path d="M87.3995 19.7996C85.9991 21.4724 84.5987 23.1452 83.1733 24.843C78.497 19.7996 73.6706 20.6235 70.8949 23.1951C67.794 26.0913 67.5939 31.4093 70.4197 34.6051C72.9204 37.4264 77.7718 38.7746 83.1733 33.8811C84.5987 35.4041 85.9991 36.9271 87.4745 38.5C83.3483 42.4698 78.547 44.4672 72.8204 43.4685C67.3689 42.4948 63.5178 39.3988 61.6423 34.1308C58.5414 25.3923 64.168 16.3542 73.3706 15.1058C78.1719 14.4566 82.4231 15.6551 86.1992 18.6262C86.6243 18.9507 87.0494 19.3003 87.3995 19.7996Z" fill="white"/>
<path d="M121.734 39.1741C122.834 37.5263 123.96 35.8785 125.085 34.1807C125.735 34.705 126.31 35.2293 126.936 35.7037C127.986 36.4777 129.136 37.0519 130.437 37.2766C132.437 37.6262 133.963 36.4527 133.988 34.4554C134.038 30.0861 134.013 25.7169 134.013 21.2228C130.787 21.2228 127.611 21.2228 124.36 21.2228C124.36 19.1505 124.36 17.2031 124.36 15.2057C130.036 15.2057 135.688 15.2057 141.34 15.2057C141.59 15.5303 141.465 15.9297 141.465 16.2793C141.465 22.1466 141.465 28.0138 141.465 33.8811C141.465 34.9797 141.39 36.0533 141.115 37.1019C140.164 40.822 137.689 42.9442 134.013 43.5434C129.211 44.2924 125.06 42.9692 121.734 39.1741Z" fill="white"/>
<path d="M96.9772 21.1728C94.1264 21.1728 91.4006 21.1728 88.5999 21.1728C88.5999 19.1255 88.5999 17.203 88.5999 15.1807C96.6521 15.1807 104.704 15.1807 112.807 15.1807C112.807 17.1531 112.807 19.1005 112.807 21.1228C110.031 21.1228 107.28 21.1228 104.429 21.1228C104.429 28.5631 104.429 35.8784 104.429 43.2937C101.904 43.2937 99.5029 43.2937 97.0022 43.2937C96.9772 35.9533 96.9772 28.638 96.9772 21.1728Z" fill="white"/>
<path d="M198.005 17.5526C200.506 19.9744 202.857 22.2464 205.257 24.5684C205.257 30.7602 205.257 37.002 205.257 43.3187C202.857 43.3187 200.481 43.3187 198.005 43.3187C198.005 34.7799 198.005 26.2661 198.005 17.5526Z" fill="white"/>
<path d="M40.1863 20.1991C41.1616 16.5789 42.1118 12.9836 43.1121 9.23853C46.7881 10.2122 50.4642 11.2109 54.3903 12.2346C49.5889 15.0059 45.0126 17.6525 40.4363 20.299C40.3363 20.274 40.2613 20.249 40.1863 20.1991Z" fill="#FE6A00"/>
<path d="M18.1801 32.5827C14.4291 31.584 10.8031 30.6103 6.927 29.5617C11.7033 26.8153 16.2546 24.1938 20.8059 21.5472C20.8809 21.5972 20.9559 21.6471 21.0309 21.6721C20.2307 25.3173 19.1304 28.8626 18.1801 32.5827Z" fill="#FE6A00"/>
<path d="M26.2323 18.5513C31.0336 15.7799 35.6599 13.1085 40.5113 10.3121C39.486 14.182 38.4857 17.8522 37.5105 21.5723C33.7094 20.5487 30.0334 19.55 26.2323 18.5513Z" fill="#FE6A00"/>
<path d="M34.7848 23.5447C30.2585 26.1662 25.7073 28.7878 21.181 31.4093C21.106 31.3594 21.031 31.3344 20.9559 31.2845C21.9062 27.6892 22.8815 24.0939 23.8818 20.3489C27.5328 21.3226 31.1338 22.2713 34.7348 23.2451C34.7348 23.32 34.7598 23.4198 34.7848 23.5447Z" fill="#FE6A00"/>
<path d="M5.82666 27.3646C6.85195 23.5197 7.80221 19.9744 8.77749 16.3541C12.4035 17.3278 15.9545 18.2766 19.8056 19.3003C15.1293 21.9967 10.603 24.6183 5.82666 27.3646Z" fill="white"/>
<path d="M51.3644 29.6117C50.3391 33.4317 49.3888 36.977 48.4136 40.6472C44.7876 39.6735 41.2116 38.7247 37.3605 37.7011C42.0868 34.9547 46.5881 32.3581 51.3644 29.6117Z" fill="white"/>
<path d="M47.2632 44.8417C46.2629 48.6117 45.3127 52.157 44.3124 55.8522C40.6864 54.8785 37.1354 53.9297 33.2593 52.9061C38.0356 50.1846 42.5619 47.5881 47.2632 44.8417Z" fill="white"/>
<path d="M9.95276 12.3844C10.978 8.56438 11.9283 4.99408 12.9036 1.34888C16.5546 2.3226 20.1056 3.27135 23.9317 4.295C19.1803 7.04139 14.6791 9.63797 9.95276 12.3844Z" fill="white"/>
<path d="M25.1321 16.3291C26.1574 12.5091 27.1076 8.96381 28.0829 5.3186C31.7339 6.29232 35.2849 7.24107 39.136 8.26473C34.4097 10.9861 29.8834 13.6077 25.1321 16.3291Z" fill="white"/>
<path d="M55.3656 14.7562C54.4153 18.3016 53.465 21.822 52.4898 25.4672C48.8137 24.4934 45.2627 23.5447 41.4617 22.521C46.163 19.7996 50.6392 17.203 55.1405 14.6064C55.2155 14.6564 55.2905 14.7063 55.3656 14.7562Z" fill="white"/>
<path d="M39.0609 24.4934C42.712 25.4671 46.313 26.4159 50.114 27.4395C45.4127 30.161 40.9115 32.7575 36.1351 35.5289C37.1354 31.7089 38.0857 28.1636 39.0609 24.4934Z" fill="white"/>
<path d="M22.2562 17.5026C18.5552 16.5039 15.0042 15.5551 11.2281 14.5565C15.9545 11.835 20.4557 9.23845 25.2071 6.49207C24.1818 10.2621 23.2315 13.8074 22.2562 17.5026Z" fill="white"/>
<path d="M36.0851 25.9914C35.1348 29.4868 34.2096 32.9822 33.2593 36.5775C29.6083 35.6038 26.0573 34.655 22.2312 33.6314C26.9325 30.91 31.4088 28.3383 35.86 25.7667C35.935 25.8167 36.0101 25.9165 36.0851 25.9914Z" fill="white"/>
<path d="M18.4302 48.6866C22.9064 46.09 27.3827 43.5184 32.134 40.772C31.1087 44.5919 30.1585 48.1373 29.1832 51.7825C25.5822 50.8088 22.0312 49.885 18.5052 48.9362C18.4802 48.8863 18.4552 48.7864 18.4302 48.6866Z" fill="white"/>
<path d="M16.8798 46.6892C17.88 42.9192 18.8303 39.3738 19.8306 35.6787C23.4816 36.6524 27.0576 37.6012 30.8837 38.6248C26.1324 41.3463 21.6061 43.9678 16.8798 46.6892Z" fill="white"/>
<path d="M34.9598 39.7234C38.6608 40.6971 42.2118 41.6459 46.0128 42.6695C41.3365 45.366 36.8353 47.9875 32.0339 50.7589C33.0592 46.9639 33.9845 43.4185 34.9598 39.7234Z" fill="white"/>
<path d="M15.9295 34.5053C12.1784 36.6774 8.5524 38.7747 4.9514 40.8469C3.77607 38.8246 3.67604 35.9284 4.67632 31.5342C8.35235 32.5079 12.0534 33.4816 15.9295 34.5053Z" fill="#FE6A01"/>
<path d="M14.0539 47.7128C10.853 47.0637 8.25227 45.6156 6.07666 43.044C9.67767 40.9467 13.2037 38.9244 16.9797 36.7273C15.9794 40.4973 15.0292 44.0427 14.0539 47.7128Z" fill="white"/>
<path d="M205.257 22.0717C202.957 19.7747 200.631 17.4278 198.38 15.1558C200.531 15.1558 202.857 15.1558 205.257 15.1558C205.257 17.5276 205.257 19.8496 205.257 22.0717Z" fill="#FE6A01"/>
<path d="M230.189 16.9783C226.713 15.0309 223.012 14.5565 219.086 15.1058C209.934 16.429 204.407 25.4671 207.508 34.1307C209.559 39.9231 215.185 43.6682 221.912 43.6931C223.538 43.6682 225.138 43.4934 226.713 43.044C232.44 41.4211 236.466 36.8521 237.216 31.0098C237.967 25.3423 235.241 19.8245 230.189 16.9783ZM221.987 37.4014C217.661 37.3515 214.235 33.6813 214.26 29.1373C214.31 24.6931 217.886 21.1228 222.187 21.1977C226.438 21.2726 229.764 24.8429 229.739 29.337C229.714 33.906 226.313 37.4264 221.987 37.4014Z" fill="white"/>
<path d="M258.247 34.2556C261.773 31.609 262.699 30.136 263.174 26.3659C263.899 20.6984 260.523 16.1794 254.796 15.4054C249.495 14.7063 244.168 15.3055 238.767 15.0808C238.617 17.6025 238.667 42.2451 238.842 43.3186C241.218 43.3186 243.618 43.3186 246.094 43.3186C246.094 40.7221 246.094 38.2004 246.094 35.6537C247.994 35.6537 249.82 35.6537 251.62 35.6537C252.996 38.2753 254.346 40.8219 255.672 43.3186C258.472 43.3186 261.173 43.3186 264.024 43.3186C262.048 40.2227 260.123 37.2267 258.247 34.2556ZM252.546 29.5617C250.445 29.7115 248.32 29.5867 246.069 29.5867C246.069 26.8154 246.069 24.2188 246.069 21.5972C246.069 21.4474 246.119 21.2726 246.144 20.998C248.445 21.0479 250.745 20.7983 252.996 21.1478C255.071 21.4724 256.272 23.1702 256.197 25.4172C256.122 27.7891 254.771 29.4119 252.546 29.5617Z" fill="white"/>
</svg>
