<svg width="589" height="51" viewBox="0 0 589 51" fill="none" xmlns="http://www.w3.org/2000/svg">
<rect x="0.733398" width="587.533" height="50.728" rx="9.77333" fill="white"/>
<path d="M111.609 24.5737C111.609 26.5757 111.234 28.2904 110.484 29.7179C109.74 31.1392 108.724 32.2279 107.435 32.984C106.153 33.74 104.699 34.118 103.072 34.118C101.444 34.118 99.9868 33.74 98.6985 32.984C97.4163 32.2219 96.4001 31.1301 95.6501 29.7088C94.9062 28.2814 94.5342 26.5697 94.5342 24.5737C94.5342 22.5717 94.9062 20.86 95.6501 19.4386C96.4001 18.0112 97.4163 16.9195 98.6985 16.1635C99.9868 15.4074 101.444 15.0294 103.072 15.0294C104.699 15.0294 106.153 15.4074 107.435 16.1635C108.724 16.9195 109.74 18.0112 110.484 19.4386C111.234 20.86 111.609 22.5717 111.609 24.5737ZM108.225 24.5737C108.225 23.1644 108.004 21.9759 107.562 21.0082C107.127 20.0344 106.522 19.2995 105.748 18.8036C104.974 18.3016 104.082 18.0505 103.072 18.0505C102.061 18.0505 101.169 18.3016 100.395 18.8036C99.6209 19.2995 99.013 20.0344 98.5715 21.0082C98.136 21.9759 97.9183 23.1644 97.9183 24.5737C97.9183 25.983 98.136 27.1745 98.5715 28.1483C99.013 29.116 99.6209 29.8509 100.395 30.3529C101.169 30.8489 102.061 31.0969 103.072 31.0969C104.082 31.0969 104.974 30.8489 105.748 30.3529C106.522 29.8509 107.127 29.116 107.562 28.1483C108.004 27.1745 108.225 25.983 108.225 24.5737ZM120.724 34.1362C119.333 34.1362 118.139 33.8307 117.141 33.2199C116.149 32.609 115.384 31.7652 114.845 30.6886C114.313 29.606 114.047 28.36 114.047 26.9507C114.047 25.5354 114.319 24.2864 114.864 23.2038C115.408 22.1151 116.176 21.2683 117.168 20.6634C118.166 20.0526 119.345 19.7471 120.706 19.7471C121.837 19.7471 122.838 19.9558 123.709 20.3731C124.586 20.7844 125.285 21.3681 125.805 22.1241C126.325 22.8741 126.622 23.7511 126.694 24.7552H123.555C123.428 24.0838 123.126 23.5243 122.648 23.0767C122.176 22.6231 121.544 22.3963 120.752 22.3963C120.08 22.3963 119.491 22.5778 118.982 22.9407C118.474 23.2975 118.078 23.8116 117.794 24.483C117.516 25.1544 117.377 25.9588 117.377 26.8963C117.377 27.8459 117.516 28.6624 117.794 29.3459C118.072 30.0233 118.462 30.5465 118.964 30.9154C119.472 31.2783 120.068 31.4598 120.752 31.4598C121.236 31.4598 121.668 31.3691 122.049 31.1876C122.436 31.0001 122.76 30.731 123.02 30.3802C123.28 30.0293 123.458 29.6029 123.555 29.1009H126.694C126.616 30.0868 126.325 30.9608 125.823 31.7229C125.321 32.4789 124.638 33.0717 123.773 33.5011C122.908 33.9245 121.892 34.1362 120.724 34.1362ZM138.273 28.0031V19.9286H141.557V33.864H138.373V31.3872H138.228C137.913 32.1674 137.396 32.8055 136.676 33.3015C135.963 33.7975 135.083 34.0455 134.036 34.0455C133.123 34.0455 132.315 33.8428 131.614 33.4376C130.918 33.0263 130.374 32.4305 129.981 31.6503C129.588 30.864 129.391 29.9144 129.391 28.8015V19.9286H132.675V28.2935C132.675 29.1765 132.917 29.8781 133.401 30.3983C133.885 30.9185 134.52 31.1785 135.306 31.1785C135.79 31.1785 136.259 31.0606 136.713 30.8247C137.166 30.5888 137.538 30.238 137.828 29.7723C138.125 29.3005 138.273 28.7108 138.273 28.0031ZM144.935 39.0898V19.9286H148.164V22.233H148.355C148.524 21.8943 148.763 21.5344 149.072 21.1534C149.38 20.7663 149.797 20.4366 150.324 20.1645C150.85 19.8862 151.521 19.7471 152.338 19.7471C153.414 19.7471 154.385 20.0223 155.25 20.5727C156.121 21.1171 156.811 21.9245 157.319 22.9951C157.833 24.0596 158.09 25.3661 158.09 26.9144C158.09 28.4447 157.839 29.7451 157.337 30.8156C156.835 31.8862 156.151 32.7027 155.286 33.2652C154.421 33.8277 153.442 34.109 152.347 34.109C151.548 34.109 150.886 33.9759 150.36 33.7098C149.834 33.4437 149.41 33.1231 149.09 32.7481C148.775 32.367 148.53 32.0072 148.355 31.6685H148.219V39.0898H144.935ZM148.155 26.8963C148.155 27.7975 148.282 28.5868 148.536 29.2642C148.796 29.9416 149.168 30.4709 149.652 30.8519C150.142 31.2269 150.735 31.4144 151.431 31.4144C152.156 31.4144 152.764 31.2209 153.254 30.8338C153.744 30.4406 154.113 29.9054 154.361 29.2279C154.615 28.5445 154.742 27.7673 154.742 26.8963C154.742 26.0314 154.618 25.2632 154.37 24.5919C154.122 23.9205 153.753 23.3943 153.263 23.0132C152.773 22.6322 152.162 22.4417 151.431 22.4417C150.729 22.4417 150.133 22.6261 149.643 22.9951C149.153 23.364 148.781 23.8812 148.527 24.5465C148.279 25.2118 148.155 25.9951 148.155 26.8963ZM164.912 34.1453C164.029 34.1453 163.234 33.988 162.526 33.6735C161.825 33.3529 161.268 32.8812 160.857 32.2582C160.452 31.6352 160.249 30.867 160.249 29.9537C160.249 29.1675 160.394 28.5173 160.685 28.0031C160.975 27.489 161.371 27.0777 161.873 26.7693C162.375 26.4608 162.941 26.2279 163.57 26.0707C164.205 25.9074 164.861 25.7894 165.538 25.7169C166.355 25.6322 167.017 25.5566 167.525 25.49C168.033 25.4175 168.402 25.3086 168.632 25.1634C168.868 25.0122 168.986 24.7794 168.986 24.4648V24.4104C168.986 23.7269 168.783 23.1977 168.378 22.8227C167.973 22.4477 167.389 22.2602 166.627 22.2602C165.823 22.2602 165.185 22.4356 164.713 22.7864C164.247 23.1372 163.932 23.5515 163.769 24.0294L160.703 23.5939C160.945 22.7471 161.344 22.0394 161.9 21.4709C162.457 20.8963 163.137 20.4669 163.942 20.1826C164.746 19.8923 165.635 19.7471 166.609 19.7471C167.28 19.7471 167.949 19.8257 168.614 19.983C169.279 20.1403 169.887 20.4003 170.438 20.7632C170.988 21.1201 171.429 21.607 171.762 22.2239C172.101 22.8409 172.27 23.612 172.27 24.5374V33.864H169.113V31.9497H169.004C168.804 32.3368 168.523 32.6997 168.16 33.0384C167.803 33.3711 167.353 33.6402 166.808 33.8459C166.27 34.0455 165.638 34.1453 164.912 34.1453ZM165.765 31.732C166.424 31.732 166.996 31.6019 167.48 31.3418C167.964 31.0757 168.336 30.7249 168.596 30.2894C168.862 29.8539 168.995 29.3791 168.995 28.865V27.2229C168.892 27.3076 168.717 27.3862 168.469 27.4588C168.227 27.5314 167.955 27.5949 167.652 27.6493C167.35 27.7037 167.05 27.7521 166.754 27.7945C166.458 27.8368 166.201 27.8731 165.983 27.9033C165.493 27.9699 165.054 28.0787 164.667 28.23C164.28 28.3812 163.975 28.5929 163.751 28.865C163.527 29.1312 163.415 29.4759 163.415 29.8993C163.415 30.5041 163.636 30.9608 164.078 31.2693C164.519 31.5777 165.082 31.732 165.765 31.732ZM180.744 34.109C179.649 34.109 178.669 33.8277 177.804 33.2652C176.94 32.7027 176.256 31.8862 175.754 30.8156C175.252 29.7451 175.001 28.4447 175.001 26.9144C175.001 25.3661 175.255 24.0596 175.763 22.9951C176.277 21.9245 176.97 21.1171 177.841 20.5727C178.712 20.0223 179.682 19.7471 180.753 19.7471C181.57 19.7471 182.241 19.8862 182.767 20.1645C183.293 20.4366 183.711 20.7663 184.019 21.1534C184.328 21.5344 184.567 21.8943 184.736 22.233H184.872V15.2834H188.165V33.864H184.935V31.6685H184.736C184.567 32.0072 184.322 32.367 184.001 32.7481C183.68 33.1231 183.257 33.4437 182.731 33.7098C182.205 33.9759 181.542 34.109 180.744 34.109ZM181.66 31.4144C182.356 31.4144 182.949 31.2269 183.438 30.8519C183.928 30.4709 184.3 29.9416 184.554 29.2642C184.808 28.5868 184.935 27.7975 184.935 26.8963C184.935 25.9951 184.808 25.2118 184.554 24.5465C184.306 23.8812 183.937 23.364 183.448 22.9951C182.964 22.6261 182.368 22.4417 181.66 22.4417C180.928 22.4417 180.318 22.6322 179.828 23.0132C179.338 23.3943 178.969 23.9205 178.721 24.5919C178.473 25.2632 178.349 26.0314 178.349 26.8963C178.349 27.7673 178.473 28.5445 178.721 29.2279C178.975 29.9054 179.347 30.4406 179.837 30.8338C180.333 31.2209 180.941 31.4144 181.66 31.4144ZM197.744 34.1362C196.383 34.1362 195.203 33.8368 194.205 33.238C193.207 32.6392 192.433 31.8015 191.883 30.7249C191.338 29.6483 191.066 28.3902 191.066 26.9507C191.066 25.5112 191.338 24.2501 191.883 23.1675C192.433 22.0848 193.207 21.2441 194.205 20.6453C195.203 20.0465 196.383 19.7471 197.744 19.7471C199.105 19.7471 200.284 20.0465 201.282 20.6453C202.28 21.2441 203.051 22.0848 203.595 23.1675C204.146 24.2501 204.421 25.5112 204.421 26.9507C204.421 28.3902 204.146 29.6483 203.595 30.7249C203.051 31.8015 202.28 32.6392 201.282 33.238C200.284 33.8368 199.105 34.1362 197.744 34.1362ZM197.762 31.5051C198.5 31.5051 199.117 31.3025 199.613 30.8973C200.109 30.486 200.478 29.9356 200.719 29.2461C200.967 28.5566 201.091 27.7884 201.091 26.9417C201.091 26.0888 200.967 25.3177 200.719 24.6281C200.478 23.9326 200.109 23.3792 199.613 22.9679C199.117 22.5566 198.5 22.3509 197.762 22.3509C197.006 22.3509 196.377 22.5566 195.875 22.9679C195.379 23.3792 195.007 23.9326 194.759 24.6281C194.517 25.3177 194.396 26.0888 194.396 26.9417C194.396 27.7884 194.517 28.5566 194.759 29.2461C195.007 29.9356 195.379 30.486 195.875 30.8973C196.377 31.3025 197.006 31.5051 197.762 31.5051Z" fill="black"/>
<path opacity="0.6" d="M251.131 41.9787H225.72V38.814C225.72 36.7156 226.557 34.7033 228.046 33.2195C229.535 31.7358 231.555 30.9022 233.661 30.9022H243.19C245.296 30.9022 247.316 31.7358 248.805 33.2195C250.294 34.7033 251.131 36.7156 251.131 38.814V41.9787ZM238.425 27.7375C237.174 27.7375 235.935 27.4919 234.779 27.0148C233.623 26.5377 232.572 25.8384 231.687 24.9568C230.802 24.0752 230.101 23.0285 229.622 21.8767C229.143 20.7248 228.896 19.4902 228.896 18.2434C228.896 16.9966 229.143 15.7621 229.622 14.6102C230.101 13.4583 230.802 12.4117 231.687 11.5301C232.572 10.6485 233.623 9.94915 234.779 9.47202C235.935 8.9949 237.174 8.74933 238.425 8.74933C240.953 8.74933 243.376 9.7496 245.163 11.5301C246.95 13.3106 247.954 15.7254 247.954 18.2434C247.954 20.7614 246.95 23.1763 245.163 24.9568C243.376 26.7373 240.953 27.7375 238.425 27.7375Z" fill="#D53F8C"/>
<line x1="287.663" y1="11.7279" x2="287.663" y2="39.0933" stroke="#C9C9C9" stroke-width="1.95467" stroke-linecap="round"/>
<path opacity="0.6" d="M347.28 41.9787H321.869V38.814C321.869 36.7156 322.706 34.7033 324.195 33.2195C325.684 31.7358 327.704 30.9022 329.81 30.9022H339.339C341.445 30.9022 343.465 31.7358 344.954 33.2195C346.443 34.7033 347.28 36.7156 347.28 38.814V41.9787ZM334.575 27.7375C333.323 27.7375 332.084 27.4919 330.928 27.0148C329.772 26.5377 328.722 25.8384 327.837 24.9568C326.952 24.0752 326.25 23.0285 325.771 21.8767C325.292 20.7248 325.046 19.4902 325.046 18.2434C325.046 16.9966 325.292 15.7621 325.771 14.6102C326.25 13.4583 326.952 12.4117 327.837 11.5301C328.722 10.6485 329.772 9.94915 330.928 9.47202C332.084 8.9949 333.323 8.74933 334.575 8.74933C337.102 8.74933 339.526 9.7496 341.313 11.5301C343.1 13.3106 344.104 15.7254 344.104 18.2434C344.104 20.7614 343.1 23.1763 341.313 24.9568C339.526 26.7373 337.102 27.7375 334.575 27.7375Z" fill="#A0AEC0"/>
<path d="M374.956 33.864H368.659V15.2834H375.083C376.927 15.2834 378.512 15.6554 379.837 16.3993C381.167 17.1372 382.19 18.1987 382.903 19.5838C383.617 20.9689 383.974 22.6261 383.974 24.5556C383.974 26.491 383.614 28.1544 382.894 29.5455C382.18 30.9366 381.149 32.0041 379.8 32.7481C378.458 33.492 376.843 33.864 374.956 33.864ZM372.025 30.9517H374.792C376.087 30.9517 377.166 30.7158 378.031 30.2441C378.896 29.7662 379.546 29.0556 379.982 28.112C380.417 27.1624 380.635 25.9769 380.635 24.5556C380.635 23.1342 380.417 21.9548 379.982 21.0173C379.546 20.0737 378.902 19.3691 378.049 18.9034C377.203 18.4316 376.15 18.1957 374.892 18.1957H372.025V30.9517ZM387.027 33.864V19.9286H390.311V33.864H387.027ZM388.678 17.9507C388.158 17.9507 387.71 17.7784 387.335 17.4336C386.96 17.0828 386.773 16.6624 386.773 16.1725C386.773 15.6766 386.96 15.2562 387.335 14.9114C387.71 14.5606 388.158 14.3852 388.678 14.3852C389.204 14.3852 389.652 14.5606 390.021 14.9114C390.396 15.2562 390.583 15.6766 390.583 16.1725C390.583 16.6624 390.396 17.0828 390.021 17.4336C389.652 17.7784 389.204 17.9507 388.678 17.9507ZM404.702 23.612L401.708 23.9386C401.624 23.6362 401.476 23.3519 401.264 23.0858C401.058 22.8197 400.78 22.605 400.429 22.4417C400.078 22.2784 399.649 22.1967 399.141 22.1967C398.457 22.1967 397.883 22.3449 397.417 22.6413C396.957 22.9376 396.731 23.3217 396.737 23.7935C396.731 24.1987 396.879 24.5284 397.181 24.7824C397.49 25.0364 397.998 25.2451 398.705 25.4084L401.082 25.9165C402.401 26.2007 403.381 26.6513 404.022 27.2683C404.669 27.8852 404.996 28.6927 405.002 29.6906C404.996 30.5677 404.739 31.3418 404.231 32.0132C403.729 32.6785 403.03 33.1987 402.135 33.5737C401.24 33.9487 400.211 34.1362 399.05 34.1362C397.344 34.1362 395.971 33.7793 394.931 33.0656C393.891 32.3459 393.271 31.3449 393.071 30.0626L396.274 29.7541C396.419 30.3832 396.728 30.858 397.199 31.1785C397.671 31.4991 398.285 31.6594 399.041 31.6594C399.821 31.6594 400.447 31.4991 400.919 31.1785C401.397 30.858 401.636 30.4618 401.636 29.99C401.636 29.5908 401.482 29.2612 401.173 29.0011C400.871 28.741 400.399 28.5414 399.758 28.4023L397.381 27.9033C396.044 27.6251 395.055 27.1564 394.414 26.4971C393.773 25.8318 393.455 24.9911 393.461 23.9749C393.455 23.1161 393.688 22.3721 394.16 21.7431C394.638 21.108 395.3 20.6181 396.147 20.2733C397 19.9225 397.983 19.7471 399.095 19.7471C400.729 19.7471 402.014 20.0949 402.951 20.7905C403.895 21.486 404.479 22.4265 404.702 23.612ZM407.71 39.0898V19.9286H410.94V22.233H411.13C411.3 21.8943 411.538 21.5344 411.847 21.1534C412.155 20.7663 412.573 20.4366 413.099 20.1645C413.625 19.8862 414.297 19.7471 415.113 19.7471C416.19 19.7471 417.16 20.0223 418.025 20.5727C418.896 21.1171 419.586 21.9245 420.094 22.9951C420.608 24.0596 420.865 25.3661 420.865 26.9144C420.865 28.4447 420.614 29.7451 420.112 30.8156C419.61 31.8862 418.927 32.7027 418.062 33.2652C417.197 33.8277 416.217 34.109 415.122 34.109C414.324 34.109 413.661 33.9759 413.135 33.7098C412.609 33.4437 412.186 33.1231 411.865 32.7481C411.551 32.367 411.306 32.0072 411.13 31.6685H410.994V39.0898H407.71ZM410.931 26.8963C410.931 27.7975 411.058 28.5868 411.312 29.2642C411.572 29.9416 411.944 30.4709 412.428 30.8519C412.918 31.2269 413.51 31.4144 414.206 31.4144C414.932 31.4144 415.539 31.2209 416.029 30.8338C416.519 30.4406 416.888 29.9054 417.136 29.2279C417.39 28.5445 417.517 27.7673 417.517 26.8963C417.517 26.0314 417.393 25.2632 417.145 24.5919C416.897 23.9205 416.528 23.3943 416.038 23.0132C415.549 22.6322 414.938 22.4417 414.206 22.4417C413.504 22.4417 412.908 22.6261 412.419 22.9951C411.929 23.364 411.557 23.8812 411.303 24.5465C411.055 25.2118 410.931 25.9951 410.931 26.8963ZM429.756 34.1362C428.395 34.1362 427.216 33.8368 426.218 33.238C425.22 32.6392 424.446 31.8015 423.895 30.7249C423.351 29.6483 423.079 28.3902 423.079 26.9507C423.079 25.5112 423.351 24.2501 423.895 23.1675C424.446 22.0848 425.22 21.2441 426.218 20.6453C427.216 20.0465 428.395 19.7471 429.756 19.7471C431.117 19.7471 432.297 20.0465 433.294 20.6453C434.292 21.2441 435.064 22.0848 435.608 23.1675C436.158 24.2501 436.434 25.5112 436.434 26.9507C436.434 28.3902 436.158 29.6483 435.608 30.7249C435.064 31.8015 434.292 32.6392 433.294 33.238C432.297 33.8368 431.117 34.1362 429.756 34.1362ZM429.774 31.5051C430.512 31.5051 431.129 31.3025 431.625 30.8973C432.121 30.486 432.49 29.9356 432.732 29.2461C432.98 28.5566 433.104 27.7884 433.104 26.9417C433.104 26.0888 432.98 25.3177 432.732 24.6281C432.49 23.9326 432.121 23.3792 431.625 22.9679C431.129 22.5566 430.512 22.3509 429.774 22.3509C429.018 22.3509 428.389 22.5566 427.887 22.9679C427.391 23.3792 427.019 23.9326 426.771 24.6281C426.529 25.3177 426.408 26.0888 426.408 26.9417C426.408 27.7884 426.529 28.5566 426.771 29.2461C427.019 29.9356 427.391 30.486 427.887 30.8973C428.389 31.3025 429.018 31.5051 429.774 31.5051ZM442.505 25.6987V33.864H439.221V19.9286H442.36V22.2965H442.524C442.844 21.5163 443.355 20.8963 444.057 20.4366C444.764 19.977 445.638 19.7471 446.679 19.7471C447.64 19.7471 448.478 19.9528 449.192 20.364C449.912 20.7753 450.468 21.3711 450.861 22.1513C451.26 22.9316 451.457 23.8782 451.451 24.9911V33.864H448.167V25.4991C448.167 24.5677 447.925 23.8388 447.441 23.3126C446.963 22.7864 446.301 22.5233 445.454 22.5233C444.879 22.5233 444.368 22.6503 443.921 22.9044C443.479 23.1523 443.131 23.5122 442.877 23.984C442.629 24.4558 442.505 25.0273 442.505 25.6987ZM454.79 33.864V19.9286H458.074V33.864H454.79ZM455.18 18.0959L457.212 13.9497H460.424L457.638 18.0959H455.18ZM473.899 19.9286L468.936 33.864H465.307L460.344 19.9286H463.846L467.049 30.2804H467.194L470.406 19.9286H473.899ZM481.867 34.1362C480.47 34.1362 479.263 33.8459 478.247 33.2652C477.237 32.6785 476.459 31.8499 475.915 30.7793C475.371 29.7027 475.099 28.4356 475.099 26.9779C475.099 25.5445 475.371 24.2864 475.915 23.2038C476.465 22.1151 477.234 21.2683 478.22 20.6634C479.205 20.0526 480.364 19.7471 481.694 19.7471C482.553 19.7471 483.364 19.8862 484.126 20.1645C484.894 20.4366 485.571 20.86 486.158 21.4346C486.751 22.0092 487.216 22.7411 487.555 23.6302C487.894 24.5132 488.063 25.5656 488.063 26.7874V27.7945H476.641V25.5808H484.915C484.909 24.9517 484.773 24.3923 484.507 23.9023C484.241 23.4064 483.869 23.0163 483.391 22.732C482.919 22.4477 482.369 22.3056 481.74 22.3056C481.068 22.3056 480.479 22.4689 479.971 22.7955C479.462 23.1161 479.066 23.5394 478.782 24.0657C478.504 24.5858 478.362 25.1574 478.356 25.7804V27.7128C478.356 28.5233 478.504 29.2189 478.8 29.7995C479.097 30.3741 479.511 30.8156 480.043 31.1241C480.575 31.4265 481.198 31.5777 481.912 31.5777C482.39 31.5777 482.822 31.5112 483.209 31.3781C483.597 31.239 483.932 31.0364 484.216 30.7703C484.501 30.5041 484.715 30.1745 484.861 29.7814L487.927 30.1261C487.734 30.9366 487.365 31.6443 486.82 32.2491C486.282 32.8479 485.592 33.3136 484.752 33.6463C483.911 33.9729 482.949 34.1362 481.867 34.1362ZM494.126 15.2834V33.864H490.842V15.2834H494.126Z" fill="black"/>
</svg>
